<svg width="35" height="35" viewBox="0 0 35 35" fill="none" xmlns="http://www.w3.org/2000/svg">
<path d="M24.6545 10.4766C24.6615 10.4766 24.6708 10.4766 24.6801 10.4766C24.923 10.4766 25.1484 10.5521 25.3332 10.6823L25.3297 10.6799C25.4645 10.7973 25.5551 10.9623 25.5772 11.1482V11.1517C25.6004 11.2935 25.6132 11.4562 25.6132 11.6223C25.6132 11.6979 25.6109 11.7722 25.6051 11.8466V11.8362C25.3436 14.589 24.2095 21.2648 23.6331 24.3464C23.3891 25.6514 22.9092 26.0883 22.4444 26.1301C21.4346 26.2243 20.6677 25.4631 19.6892 24.8217C18.1577 23.8166 17.292 23.1914 15.8058 22.2118C14.0872 21.0812 15.2015 20.4572 16.1799 19.4416C16.4368 19.1743 20.8884 15.1247 20.9756 14.7575C20.9802 14.7354 20.9826 14.711 20.9826 14.6854C20.9826 14.5948 20.9489 14.5123 20.8943 14.4495C20.8338 14.41 20.7583 14.3879 20.6793 14.3879C20.627 14.3879 20.577 14.3984 20.5305 14.4158L20.5329 14.4147C20.3795 14.4495 17.933 16.0663 13.1936 19.2649C12.6765 19.6728 12.0234 19.9308 11.3123 19.961H11.3053C10.2978 19.839 9.3833 19.6147 8.51527 19.2951L8.60126 19.323C7.51129 18.9675 6.64558 18.7804 6.71995 18.1784C6.75946 17.8655 7.19096 17.5451 8.01444 17.2175C13.087 15.0073 16.4697 13.5505 18.1624 12.8471C20.0297 11.8559 22.1946 11.0402 24.471 10.5114L24.6534 10.4754L24.6545 10.4766ZM17.4593 0.000991821C7.81225 0.0242322 0 7.85043 0 17.501C0 27.1655 7.83433 35.001 17.5 35.001C27.1657 35.001 35 27.1667 35 17.501C35 7.85043 27.1878 0.0242322 17.543 0.000991821H17.5407C17.5136 0.000991821 17.4864 0.000991821 17.4593 0.000991821Z" fill="#21AFFF"/>
</svg>
