<svg width="48" height="35" viewBox="0 0 48 35" fill="none" xmlns="http://www.w3.org/2000/svg">
<path fill-rule="evenodd" clip-rule="evenodd" d="M18.8386 23.9663V9.93674C23.5366 12.2803 27.1753 14.5442 31.4787 16.9851C27.9293 19.0718 23.5366 21.4133 18.8386 23.9663ZM45.021 2.9592C44.2105 1.8273 42.8293 0.946214 41.3588 0.654514C37.0366 -0.215611 10.072 -0.218086 5.75208 0.654514C4.57286 0.888864 3.52281 1.45532 2.62078 2.33542C-1.17997 6.07517 0.0110039 26.1302 0.927131 29.3789C1.31237 30.785 1.81039 31.7991 2.43758 32.4648C3.24565 33.3449 4.35203 33.9509 5.62286 34.2226C9.18165 35.003 27.5159 35.4393 41.2836 34.3398C42.5521 34.1054 43.6749 33.48 44.5605 32.5625C48.0747 28.8377 47.8351 7.65632 45.021 2.9592Z" fill="#FA194F"/>
</svg>
